<svg width="45" height="45" viewBox="0 0 45 45" fill="none" xmlns="http://www.w3.org/2000/svg">
<g clip-path="url(#clip0_202_5)">
<path d="M0 22.5C0 34.9264 10.0736 45 22.5 45C34.9264 45 45 34.9264 45 22.5C45 10.0736 34.9264 0 22.5 0C10.0736 0 0 10.0736 0 22.5Z" fill="url(#paint0_radial_202_5)"/>
<path d="M27.7295 22.3733C27.7295 22.9373 27.6554 23.4813 27.5073 24.0054C27.3649 24.5238 27.1598 25.0108 26.8921 25.4666C26.6243 25.9166 26.3053 26.3296 25.9351 26.7056C25.5648 27.0758 25.1518 27.3949 24.696 27.6626C24.2403 27.9303 23.7504 28.1383 23.2263 28.2864C22.7079 28.4288 22.1667 28.5 21.6028 28.5H17.9114V16.2466H21.6028C22.1667 16.2466 22.7079 16.3206 23.2263 16.4688C23.7504 16.6112 24.2403 16.8162 24.696 17.084C25.1518 17.3517 25.5648 17.6736 25.9351 18.0496C26.3053 18.4198 26.6243 18.8328 26.8921 19.2886C27.1598 19.7386 27.3649 20.2257 27.5073 20.7498C27.6554 21.2681 27.7295 21.8093 27.7295 22.3733ZM25.2771 22.3733C25.2771 21.8663 25.1803 21.3906 24.9866 20.9463C24.7986 20.502 24.5365 20.1146 24.2004 19.7842C23.87 19.4481 23.4798 19.1832 23.0298 18.9895C22.5854 18.7958 22.1098 18.699 21.6028 18.699H20.3809V26.0476H21.6028C22.1098 26.0476 22.5854 25.9536 23.0298 25.7656C23.4798 25.5719 23.87 25.3099 24.2004 24.9795C24.5365 24.6434 24.7986 24.2532 24.9866 23.8088C25.1803 23.3588 25.2771 22.8803 25.2771 22.3733Z" fill="white"/>
</g>
<defs>`
<radialGradient id="paint0_radial_202_5" cx="-1" cy="0" r="2" gradientUnits="userSpaceOnUse" gradientTransform="translate(22.5 11) rotate(-90) scale(11)">
<stop stop-color="#0252CD"/>
<stop offset="1" stop-color="#0252CD" stop-opacity="0.8"/>
</radialGradient>
<clipPath id="clip0_202_5">
<rect width="45" height="45" fill="white"/>
</clipPath>
</defs>
</svg>
